<svg xmlns="http://www.w3.org/2000/svg" viewBox="0 0 256 256">
  <!-- Background -->
  <rect width="256" height="256" fill="#1A1A2E" rx="40"/>
  
  <!-- Paper/clipboard background -->
  <rect x="58" y="38" width="140" height="180" fill="#F5F5DC" rx="8" stroke="#8B7355" stroke-width="2"/>
  
  <!-- Clipboard clip at top -->
  <rect x="103" y="23" width="50" height="20" fill="#8B7355" rx="3"/>
  <circle cx="118" cy="33" r="4" fill="#666"/>
  <circle cx="138" cy="33" r="4" fill="#666"/>
  
  <!-- Checkboxes and lines on paper -->
  <!-- Checkbox 1 - checked -->
  <rect x="73" y="63" width="14" height="14" fill="white" stroke="#2D5016" stroke-width="1.5" rx="2"/>
  <path d="M 77 71 L 80 74 L 85 66" stroke="#2D5016" stroke-width="2" fill="none" stroke-linecap="round" stroke-linejoin="round"/>
  <line x1="91" y1="70" x2="178" y2="70" stroke="#CCCCCC" stroke-width="1"/>
  
  <!-- Checkbox 2 - checked -->
  <rect x="73" y="88" width="14" height="14" fill="white" stroke="#2D5016" stroke-width="1.5" rx="2"/>
  <path d="M 77 96 L 80 99 L 85 91" stroke="#2D5016" stroke-width="2" fill="none" stroke-linecap="round" stroke-linejoin="round"/>
  <line x1="91" y1="95" x2="178" y2="95" stroke="#CCCCCC" stroke-width="1"/>
  
  <!-- Checkbox 3 - unchecked -->
  <rect x="73" y="113" width="14" height="14" fill="white" stroke="#999" stroke-width="1.5" rx="2"/>
  <line x1="91" y1="120" x2="178" y2="120" stroke="#CCCCCC" stroke-width="1"/>
  
  <!-- Checkbox 4 - unchecked -->
  <rect x="73" y="138" width="14" height="14" fill="white" stroke="#999" stroke-width="1.5" rx="2"/>
  <line x1="91" y1="145" x2="178" y2="145" stroke="#CCCCCC" stroke-width="1"/>
</svg>